<mxfile host="app.diagrams.net" modified="2022-03-09T07:49:53.811Z" agent="5.0 (Windows NT 10.0; Win64; x64) AppleWebKit/537.36 (KHTML, like Gecko) Chrome/99.0.4844.51 Safari/537.36" etag="oXG_ARoO6wTMxi1emf2R" version="16.6.7" type="github">
  <diagram id="3Z-sJ1tQZvgvWyGCWQk1" name="第 1 页">
    <mxGraphModel dx="1865" dy="1692" grid="1" gridSize="10" guides="1" tooltips="1" connect="1" arrows="1" fold="1" page="1" pageScale="1" pageWidth="827" pageHeight="1169" math="0" shadow="0">
      <root>
        <mxCell id="0" />
        <mxCell id="1" parent="0" />
        <mxCell id="Ku-AFJ_3S5Cv2QX4zt5V-45" value="" style="rounded=1;whiteSpace=wrap;html=1;fillColor=#d5e8d4;strokeColor=#82b366;" parent="1" vertex="1">
          <mxGeometry x="355" y="-70" width="585" height="680" as="geometry" />
        </mxCell>
        <mxCell id="Ku-AFJ_3S5Cv2QX4zt5V-17" value="" style="rounded=1;whiteSpace=wrap;html=1;fillColor=#d5e8d4;strokeColor=#82b366;" parent="1" vertex="1">
          <mxGeometry x="-50" y="-70" width="390" height="680" as="geometry" />
        </mxCell>
        <mxCell id="Ku-AFJ_3S5Cv2QX4zt5V-18" value="iDas" style="rounded=1;whiteSpace=wrap;html=1;fillColor=#dae8fc;strokeColor=#6c8ebf;" parent="1" vertex="1">
          <mxGeometry x="-190" y="10" width="120" height="60" as="geometry" />
        </mxCell>
        <mxCell id="Ku-AFJ_3S5Cv2QX4zt5V-27" value="" style="edgeStyle=orthogonalEdgeStyle;rounded=0;orthogonalLoop=1;jettySize=auto;html=1;" parent="1" source="Ku-AFJ_3S5Cv2QX4zt5V-25" target="Ku-AFJ_3S5Cv2QX4zt5V-26" edge="1">
          <mxGeometry relative="1" as="geometry" />
        </mxCell>
        <mxCell id="Ku-AFJ_3S5Cv2QX4zt5V-25" value="（project）项目空间&lt;br&gt;tenant_id" style="rounded=1;whiteSpace=wrap;html=1;fillColor=#dae8fc;strokeColor=#6c8ebf;" parent="1" vertex="1">
          <mxGeometry x="-20" y="30" width="120" height="60" as="geometry" />
        </mxCell>
        <mxCell id="Ku-AFJ_3S5Cv2QX4zt5V-26" value="tenant（租户）&lt;br&gt;id" style="whiteSpace=wrap;html=1;fillColor=#dae8fc;strokeColor=#6c8ebf;rounded=1;" parent="1" vertex="1">
          <mxGeometry x="180" y="30" width="120" height="60" as="geometry" />
        </mxCell>
        <mxCell id="Ku-AFJ_3S5Cv2QX4zt5V-34" value="" style="edgeStyle=orthogonalEdgeStyle;rounded=0;orthogonalLoop=1;jettySize=auto;html=1;entryX=0;entryY=0.5;entryDx=0;entryDy=0;" parent="1" source="Ku-AFJ_3S5Cv2QX4zt5V-28" target="Ku-AFJ_3S5Cv2QX4zt5V-33" edge="1">
          <mxGeometry relative="1" as="geometry" />
        </mxCell>
        <mxCell id="Ku-AFJ_3S5Cv2QX4zt5V-28" value="tenant(租户表)" style="rounded=1;whiteSpace=wrap;html=1;fillColor=#ffe6cc;strokeColor=#d79b00;" parent="1" vertex="1">
          <mxGeometry x="-20" y="140" width="120" height="60" as="geometry" />
        </mxCell>
        <mxCell id="Ku-AFJ_3S5Cv2QX4zt5V-31" value="集群_租户中间表&lt;br&gt;console_cluster_tenant" style="whiteSpace=wrap;html=1;fillColor=#ffe6cc;strokeColor=#d79b00;rounded=1;" parent="1" vertex="1">
          <mxGeometry x="180" y="140" width="140" height="60" as="geometry" />
        </mxCell>
        <mxCell id="Ku-AFJ_3S5Cv2QX4zt5V-35" style="edgeStyle=orthogonalEdgeStyle;rounded=0;orthogonalLoop=1;jettySize=auto;html=1;entryX=0.5;entryY=1;entryDx=0;entryDy=0;exitX=1;exitY=0.5;exitDx=0;exitDy=0;" parent="1" source="Ku-AFJ_3S5Cv2QX4zt5V-33" target="Ku-AFJ_3S5Cv2QX4zt5V-31" edge="1">
          <mxGeometry relative="1" as="geometry" />
        </mxCell>
        <mxCell id="Ku-AFJ_3S5Cv2QX4zt5V-33" value="集群表&lt;br&gt;console_cluster" style="whiteSpace=wrap;html=1;fillColor=#ffe6cc;strokeColor=#d79b00;rounded=1;" parent="1" vertex="1">
          <mxGeometry x="85" y="260" width="120" height="60" as="geometry" />
        </mxCell>
        <mxCell id="Ku-AFJ_3S5Cv2QX4zt5V-36" value="taier" style="whiteSpace=wrap;html=1;fillColor=#ffe6cc;strokeColor=#d79b00;rounded=1;" parent="1" vertex="1">
          <mxGeometry x="-190" y="140" width="120" height="60" as="geometry" />
        </mxCell>
        <mxCell id="Ku-AFJ_3S5Cv2QX4zt5V-48" style="edgeStyle=orthogonalEdgeStyle;rounded=0;orthogonalLoop=1;jettySize=auto;html=1;entryX=0;entryY=0.5;entryDx=0;entryDy=0;" parent="1" source="Ku-AFJ_3S5Cv2QX4zt5V-38" target="Ku-AFJ_3S5Cv2QX4zt5V-41" edge="1">
          <mxGeometry relative="1" as="geometry" />
        </mxCell>
        <mxCell id="Ku-AFJ_3S5Cv2QX4zt5V-38" value="（project）项目空间&lt;br&gt;tenant_id" style="rounded=1;whiteSpace=wrap;html=1;fillColor=#dae8fc;strokeColor=#6c8ebf;" parent="1" vertex="1">
          <mxGeometry x="390" y="130" width="120" height="60" as="geometry" />
        </mxCell>
        <mxCell id="Ku-AFJ_3S5Cv2QX4zt5V-39" value="tenant（租户）&lt;br&gt;id" style="whiteSpace=wrap;html=1;fillColor=#dae8fc;strokeColor=#6c8ebf;rounded=1;" parent="1" vertex="1">
          <mxGeometry x="485" y="-30" width="120" height="60" as="geometry" />
        </mxCell>
        <mxCell id="Ku-AFJ_3S5Cv2QX4zt5V-49" value="两表合并" style="edgeStyle=orthogonalEdgeStyle;rounded=0;orthogonalLoop=1;jettySize=auto;html=1;entryX=1;entryY=0.5;entryDx=0;entryDy=0;" parent="1" source="Ku-AFJ_3S5Cv2QX4zt5V-41" target="Ku-AFJ_3S5Cv2QX4zt5V-38" edge="1">
          <mxGeometry relative="1" as="geometry" />
        </mxCell>
        <mxCell id="Ku-AFJ_3S5Cv2QX4zt5V-58" value="taier的租户表添加iDas系统中的租户&lt;br&gt;表中的关联关系通过超级租户可对所&lt;br&gt;有的集群进行CRUD" style="edgeStyle=orthogonalEdgeStyle;rounded=0;orthogonalLoop=1;jettySize=auto;html=1;entryX=1;entryY=0.5;entryDx=0;entryDy=0;exitX=1;exitY=0.5;exitDx=0;exitDy=0;" parent="1" source="Ku-AFJ_3S5Cv2QX4zt5V-41" target="Ku-AFJ_3S5Cv2QX4zt5V-39" edge="1">
          <mxGeometry relative="1" as="geometry">
            <mxPoint x="780" y="160" as="targetPoint" />
          </mxGeometry>
        </mxCell>
        <mxCell id="Ku-AFJ_3S5Cv2QX4zt5V-41" value="tenant(租户表)" style="rounded=1;whiteSpace=wrap;html=1;fillColor=#ffe6cc;strokeColor=#d79b00;" parent="1" vertex="1">
          <mxGeometry x="580" y="130" width="120" height="60" as="geometry" />
        </mxCell>
        <mxCell id="Ku-AFJ_3S5Cv2QX4zt5V-42" value="集群_租户中间表&lt;br&gt;console_cluster_tenant" style="whiteSpace=wrap;html=1;fillColor=#ffe6cc;strokeColor=#d79b00;rounded=1;" parent="1" vertex="1">
          <mxGeometry x="475" y="410" width="140" height="60" as="geometry" />
        </mxCell>
        <mxCell id="Ku-AFJ_3S5Cv2QX4zt5V-43" style="edgeStyle=orthogonalEdgeStyle;rounded=0;orthogonalLoop=1;jettySize=auto;html=1;entryX=0.5;entryY=0;entryDx=0;entryDy=0;exitX=0.5;exitY=1;exitDx=0;exitDy=0;" parent="1" source="Ku-AFJ_3S5Cv2QX4zt5V-44" target="Ku-AFJ_3S5Cv2QX4zt5V-42" edge="1">
          <mxGeometry relative="1" as="geometry" />
        </mxCell>
        <mxCell id="Ku-AFJ_3S5Cv2QX4zt5V-44" value="集群表&lt;br&gt;console_cluster" style="whiteSpace=wrap;html=1;fillColor=#ffe6cc;strokeColor=#d79b00;rounded=1;" parent="1" vertex="1">
          <mxGeometry x="485" y="280" width="120" height="60" as="geometry" />
        </mxCell>
        <mxCell id="Ku-AFJ_3S5Cv2QX4zt5V-53" style="edgeStyle=orthogonalEdgeStyle;rounded=0;orthogonalLoop=1;jettySize=auto;html=1;entryX=0.5;entryY=0;entryDx=0;entryDy=0;" parent="1" source="Ku-AFJ_3S5Cv2QX4zt5V-50" target="Ku-AFJ_3S5Cv2QX4zt5V-44" edge="1">
          <mxGeometry relative="1" as="geometry" />
        </mxCell>
        <mxCell id="Ku-AFJ_3S5Cv2QX4zt5V-50" value="" style="strokeWidth=2;html=1;shape=mxgraph.flowchart.annotation_2;align=left;labelPosition=right;pointerEvents=1;rotation=-90;" parent="1" vertex="1">
          <mxGeometry x="510" y="120" width="70" height="200" as="geometry" />
        </mxCell>
        <mxCell id="Ku-AFJ_3S5Cv2QX4zt5V-55" value="" style="strokeWidth=2;html=1;shape=mxgraph.flowchart.annotation_2;align=left;labelPosition=right;pointerEvents=1;rotation=90;" parent="1" vertex="1">
          <mxGeometry x="520" y="10" width="50" height="200" as="geometry" />
        </mxCell>
        <mxCell id="Ku-AFJ_3S5Cv2QX4zt5V-56" value="" style="edgeStyle=orthogonalEdgeStyle;rounded=0;orthogonalLoop=1;jettySize=auto;html=1;entryX=0;entryY=0.5;entryDx=0;entryDy=0;endArrow=none;entryPerimeter=0;" parent="1" source="Ku-AFJ_3S5Cv2QX4zt5V-39" target="Ku-AFJ_3S5Cv2QX4zt5V-55" edge="1">
          <mxGeometry relative="1" as="geometry">
            <mxPoint x="530" y="10" as="sourcePoint" />
            <mxPoint x="450" y="130" as="targetPoint" />
          </mxGeometry>
        </mxCell>
        <mxCell id="NQpV8oBEuTvhBJwhvVOD-3" value="没改版之前" style="text;html=1;strokeColor=none;fillColor=none;align=center;verticalAlign=middle;whiteSpace=wrap;rounded=0;" vertex="1" parent="1">
          <mxGeometry x="90" y="-70" width="75" height="30" as="geometry" />
        </mxCell>
        <mxCell id="NQpV8oBEuTvhBJwhvVOD-4" value="预期改版" style="text;html=1;strokeColor=none;fillColor=none;align=center;verticalAlign=middle;whiteSpace=wrap;rounded=0;" vertex="1" parent="1">
          <mxGeometry x="590" y="-70" width="75" height="30" as="geometry" />
        </mxCell>
      </root>
    </mxGraphModel>
  </diagram>
</mxfile>
